<svg width="14" height="15" viewBox="0 0 14 15" fill="none" xmlns="http://www.w3.org/2000/svg">
<path d="M11.6876 5.13113C11.6876 2.29728 9.39028 0 6.55644 0C3.7226 0 1.42531 2.29728 1.42531 5.13113C0.692702 5.22235 0 5.70125 0 6.813V9.49259C0 10.7469 0.877993 11.203 1.71038 11.203H2.53706C2.69448 11.203 2.82212 11.0753 2.82212 10.9179V5.39909C2.82212 5.24166 2.69448 5.11403 2.53706 5.11403H1.99544C1.99544 2.59507 4.03748 0.553022 6.55644 0.553022C9.07539 0.553022 11.1174 2.59507 11.1174 5.11403H10.5758C10.4184 5.11403 10.2908 5.24166 10.2908 5.39909V10.9094C10.2908 11.0668 10.4184 11.1944 10.5758 11.1944H11.1174C11.0376 13.1528 10.0969 13.6117 8.21835 13.6944V13.5034C8.21835 13.1885 7.96311 12.9333 7.64823 12.9333H5.85518C5.5403 12.9333 5.28506 13.1885 5.28506 13.5034V14.4299C5.28506 14.7448 5.5403 15 5.85518 15H7.65393C7.96882 15 8.22405 14.7448 8.22405 14.4299V14.2645C10.0314 14.1819 11.5935 13.8084 11.6876 11.1773C12.4202 11.0861 13.1129 10.6072 13.1129 9.49544V6.81585C13.1129 5.6984 12.423 5.22235 11.6876 5.13113ZM2.25199 5.6642V10.6243H1.69612C1.27423 10.6243 0.555872 10.4761 0.555872 9.48404V6.80445C0.555872 5.82098 1.26568 5.6642 1.69612 5.6642H2.25199V5.6642ZM7.65393 13.9994V14.4327H5.85518V13.5063H7.65393V13.9994ZM12.5428 9.49259C12.5428 10.4761 11.8329 10.6328 11.4025 10.6328H10.8609V5.68415H11.4168C11.8386 5.68415 12.557 5.83238 12.557 6.8244L12.5428 9.49259Z" fill="#8C2AD9"/>
</svg>
