<svg width="193" height="193" viewBox="0 0 193 193" fill="none" xmlns="http://www.w3.org/2000/svg">
<path d="M144.75 80.4167C144.775 65.8763 139.874 51.7562 130.845 40.3586C121.816 28.961 109.193 20.9582 95.0323 17.6548C80.8721 14.3514 66.0105 15.9424 52.8704 22.1684C39.7303 28.3943 29.0869 38.888 22.6754 51.9385C16.2639 64.9891 14.4624 79.8267 17.5648 94.0323C20.6672 108.238 28.4904 120.974 39.7589 130.163C51.0275 139.352 65.0766 144.453 79.6159 144.634C94.1552 144.815 108.327 140.066 119.821 131.16L171.287 182.626L182.626 171.288L131.16 119.821C139.937 108.558 144.718 94.6957 144.75 80.4167ZM80.4167 128.667C70.8737 128.667 61.5451 125.837 53.6104 120.535C45.6757 115.233 39.4914 107.698 35.8395 98.8812C32.1876 90.0646 31.232 80.3632 33.0938 71.0036C34.9555 61.644 39.5509 53.0467 46.2988 46.2988C53.0467 39.5509 61.644 34.9555 71.0036 33.0938C80.3631 31.2321 90.0646 32.1876 98.8811 35.8395C107.698 39.4914 115.233 45.6758 120.535 53.6104C125.837 61.5451 128.667 70.8737 128.667 80.4167C128.667 93.2134 123.583 105.486 114.535 114.535C105.486 123.583 93.2134 128.667 80.4167 128.667Z" fill="#4B4B4B"/>
</svg>
