<svg width="15" height="15" viewBox="0 0 15 15" fill="none" xmlns="http://www.w3.org/2000/svg">
<path d="M9.25781 2.22656C9.25781 1.2573 8.46926 0.46875 7.5 0.46875C6.53074 0.46875 5.74219 1.2573 5.74219 2.22656C5.74219 3.19582 6.53074 3.98437 7.5 3.98437C8.46926 3.98437 9.25781 3.19582 9.25781 2.22656ZM7.5 3.39844C6.85383 3.39844 6.32812 2.87273 6.32812 2.22656C6.32812 1.58039 6.85383 1.05469 7.5 1.05469C8.14617 1.05469 8.67188 1.58039 8.67188 2.22656C8.67188 2.87273 8.14617 3.39844 7.5 3.39844Z" fill="#317610"/>
<path d="M10.1367 7.79297V6.62109C10.1367 5.16721 8.95389 3.98438 7.5 3.98438C6.04611 3.98438 4.86328 5.16721 4.86328 6.62109V7.79297C4.86328 7.95478 4.99447 8.08594 5.15625 8.08594H9.84375C10.0055 8.08594 10.1367 7.95478 10.1367 7.79297ZM9.55078 7.5H5.44922V6.62109C5.44922 5.49029 6.3692 4.57031 7.5 4.57031C8.6308 4.57031 9.55078 5.49029 9.55078 6.62109V7.5Z" fill="#317610"/>
<path d="M2.10521 11.9565L3.51562 12.6616V14.2383C3.51562 14.4001 3.64682 14.5312 3.80859 14.5312H6.91406C7.07584 14.5312 7.20703 14.4001 7.20703 14.2383V10.5111C7.20703 9.57999 6.51996 8.77667 5.64284 8.68233C5.61955 8.67794 4.51055 8.59529 3.97444 8.05954L3.17229 7.25742C2.95093 7.036 2.65667 6.91406 2.34375 6.91406V4.57031C2.34375 3.92414 1.81805 3.39844 1.17188 3.39844C0.525703 3.39844 0 3.92414 0 4.57031V8.55C0 9.99176 0.814395 11.3109 2.10521 11.9565V11.9565ZM0.585938 4.57031C0.585938 4.24723 0.848789 3.98438 1.17188 3.98438C1.49496 3.98438 1.75781 4.24723 1.75781 4.57031V7.07112C1.40051 7.27772 1.17188 7.66292 1.17188 8.08594C1.17188 8.39883 1.29381 8.69306 1.51521 8.91445L3.0155 10.415C3.12984 10.5294 3.31538 10.5295 3.42981 10.4151C3.54422 10.3007 3.54425 10.1152 3.42984 10.0008L1.92955 8.50014C1.81881 8.38942 1.75781 8.24232 1.75781 8.08594C1.75781 7.83797 1.91476 7.6159 2.1484 7.53337C2.14849 7.53334 2.14857 7.53328 2.14866 7.53325H2.14869C2.35025 7.4618 2.59008 7.50381 2.75798 7.67171L3.56021 8.47394C4.1066 9.01995 4.90292 9.17353 5.57689 9.26455C5.57798 9.26467 5.57909 9.26481 5.5802 9.26493C6.16389 9.32769 6.62109 9.8751 6.62109 10.5111V13.9453H4.10156V12.4805C4.10156 12.3695 4.03884 12.268 3.93961 12.2184L2.36728 11.4324C1.26853 10.8829 0.585938 9.77842 0.585938 8.55V4.57031Z" fill="#317610"/>
<path d="M13.4473 11.543C13.6091 11.543 13.7402 11.4118 13.7402 11.25C13.7402 11.0882 13.6091 10.957 13.4473 10.957C13.2855 10.957 13.1543 11.0882 13.1543 11.25C13.1543 11.4118 13.2855 11.543 13.4473 11.543Z" fill="#317610"/>
<path d="M13.8281 3.39844C13.182 3.39844 12.6562 3.92414 12.6562 4.57031V6.91406C12.3433 6.91406 12.0491 7.036 11.8277 7.25739L11.0256 8.05945C10.5581 8.52671 9.79963 8.60461 9.35716 8.68236C8.48004 8.7767 7.79297 9.57999 7.79297 10.5111V14.2383C7.79297 14.4001 7.92416 14.5312 8.08594 14.5312H11.1914C11.3532 14.5312 11.4844 14.4001 11.4844 14.2383V12.6616L12.4433 12.1822C12.588 12.1098 12.6466 11.9339 12.5743 11.7891C12.502 11.6444 12.326 11.5857 12.1813 11.6581L11.0604 12.2184C10.9612 12.268 10.8984 12.3695 10.8984 12.4805V13.9453H8.37891V10.5111C8.37891 9.8751 8.83611 9.32769 9.41979 9.2649C9.42091 9.26479 9.42202 9.26467 9.42311 9.26452C10.1075 9.17209 10.894 9.01937 11.4399 8.47386L12.242 7.67171C12.4097 7.50401 12.6496 7.46177 12.8513 7.53325H12.8513C12.8514 7.53328 12.8515 7.53334 12.8516 7.53337C13.0852 7.6159 13.2422 7.83797 13.2422 8.08594C13.2422 8.24232 13.1812 8.38942 13.0705 8.5002L11.5702 10.0008C11.4558 10.1152 11.4558 10.3007 11.5702 10.4151C11.6846 10.5295 11.8701 10.5295 11.9845 10.4151L13.4848 8.91448C13.7062 8.69306 13.8281 8.39883 13.8281 8.08594C13.8281 7.66292 13.5995 7.27772 13.2422 7.07112V4.57031C13.2422 4.24723 13.505 3.98438 13.8281 3.98438C14.1512 3.98438 14.4141 4.24723 14.4141 4.57031V8.55C14.4141 9.08602 14.2788 9.61816 14.0229 10.0889C13.9455 10.2311 13.9981 10.4089 14.1403 10.4862C14.2824 10.5635 14.4604 10.5109 14.5376 10.3688C14.8401 9.81243 15 9.18349 15 8.55V4.57031C15 3.92414 14.4743 3.39844 13.8281 3.39844V3.39844Z" fill="#317610"/>
</svg>
