<svg width="15" height="16" viewBox="0 0 15 16" fill="none" xmlns="http://www.w3.org/2000/svg">
<g clip-path="url(#clip0_1363_507)">
<path d="M1.70299 2.71738C1.63305 2.58181 1.50126 2.5172 1.38036 2.56099C1.26181 2.60393 1.17534 2.74219 1.16583 2.90208C1.14565 3.24149 1.46631 3.4414 1.65699 3.21288C1.76217 3.08678 1.78224 2.87259 1.70299 2.71738V2.71738Z" fill="#CB1616"/>
<path d="M2.78306 2.71739C2.71034 2.5764 2.57055 2.51241 2.44669 2.56651C2.32344 2.62034 2.23973 2.77705 2.24525 2.94706C2.25586 3.27351 2.56976 3.43178 2.74635 3.20127C2.84407 3.0737 2.85972 2.86754 2.78306 2.71739Z" fill="#CB1616"/>
<path d="M14.7756 14.6222C14.4529 14.5194 14.1868 14.603 13.99 14.7439C13.9726 14.7191 13.9548 14.6946 13.9365 14.6706L13.5931 14.2224C13.5788 14.2036 13.5639 14.1857 13.5491 14.1676C13.6569 13.9108 13.7208 13.5636 13.6421 13.1425C13.6036 12.9368 13.4446 12.8105 13.287 12.8606C13.1294 12.9107 13.0328 13.1181 13.0712 13.3239C13.104 13.4992 13.0864 13.6376 13.0537 13.741C12.8176 13.606 12.5609 13.5417 12.3035 13.5496V4.22695C12.3036 4.22446 12.3038 4.22205 12.3038 4.21955V2.47965C12.3038 1.7536 11.8373 1.14438 11.2811 1.14438H7.55965C7.39743 1.14438 7.26593 1.31608 7.26593 1.5278V1.52819C7.26593 1.73991 7.39743 1.91161 7.55965 1.91161H11.2809C11.5178 1.91161 11.716 2.17065 11.716 2.47977V3.83609H0.587682V2.47965C0.587682 2.17111 0.786651 1.91161 1.02283 1.91161H4.98161C5.14384 1.91161 5.27534 1.73991 5.27534 1.52819C5.27534 1.52807 5.27534 1.52796 5.27534 1.5278C5.27534 1.31608 5.14384 1.14438 4.98161 1.14438H1.02269C0.46705 1.14438 0 1.75429 0 2.47977V14.6704C0 15.3963 0.449544 15.9924 1.0065 16.0052C1.01191 16.0056 1.01731 16.0058 1.02272 16.0058H2.39764L2.37437 16.4226C2.31771 17.4378 2.95357 18.3297 3.73296 18.3297C4.48396 18.3297 5.09496 17.533 5.09496 16.5537C5.09496 16.5083 5.068 16.0057 5.068 16.0057L8.88476 16.0054C9.04698 16.0054 9.17848 15.8337 9.17848 15.622V14.6715C9.17848 14.5699 9.14752 14.4723 9.09245 14.4004L8.47481 13.5942L8.19454 12.3473L9.33013 13.4661C9.38109 13.5163 9.44321 13.5435 9.50707 13.5435H9.99365C9.78006 14.1364 9.86054 14.8665 10.2354 15.3559C10.3386 15.4906 10.4581 15.5985 10.5884 15.677C10.5671 16.0523 10.6153 16.431 10.7314 16.7759C10.6518 16.8201 10.5443 16.8445 10.4077 16.801C10.25 16.7508 10.0911 16.8769 10.0528 17.0826C10.0144 17.2884 10.1111 17.4959 10.2687 17.5461C10.5937 17.6496 10.8613 17.5642 11.0584 17.4215C11.072 17.4404 11.0854 17.4594 11.0995 17.4778L11.4428 17.926C11.4608 17.9495 11.4793 17.9722 11.4979 17.9945C11.3885 18.252 11.3229 18.6014 11.4023 19.0259C11.4407 19.2316 11.5997 19.3579 11.7573 19.3078C11.915 19.2577 12.0115 19.0503 11.9731 18.8445C11.939 18.6619 11.9594 18.5192 11.9947 18.4146C12.2114 18.536 12.4467 18.6001 12.6897 18.6001C13.1607 18.6001 13.6035 18.3607 13.9365 17.9259C13.9366 17.9258 13.9367 17.9257 13.9368 17.9255C14.2697 17.4908 14.453 16.9129 14.453 16.2983C14.453 15.9819 14.4041 15.6755 14.3116 15.3931C14.3913 15.3485 14.4993 15.3236 14.6367 15.3674C14.7944 15.4176 14.9533 15.2915 14.9917 15.0857C15.03 14.88 14.9333 14.6725 14.7756 14.6222V14.6222ZM13.1778 14.7647L13.5211 15.2129C13.7432 15.5028 13.8655 15.8882 13.8655 16.2983C13.8655 16.5772 13.8088 16.8446 13.7027 17.0785L11.7492 14.5283C12.2065 14.1761 12.8026 14.2749 13.1778 14.7647ZM3.0406 8.60405H4.42471C4.58693 8.60405 4.71843 8.43235 4.71843 8.22062V7.13599C5.01683 7.49135 5.19485 7.9995 5.19485 8.54649C5.19485 9.58507 4.52837 10.4548 3.73264 10.4548C2.93791 10.4548 2.27075 9.58534 2.27075 8.54649C2.27075 7.99962 2.44866 7.4915 2.74687 7.13622V8.22062C2.74687 8.43235 2.87837 8.60405 3.0406 8.60405ZM3.73293 17.5629C3.28918 17.5629 2.92795 17.0566 2.96023 16.4783L3.25775 11.1498C3.56815 11.2461 3.89742 11.2461 4.20783 11.1497L4.45902 15.6502C4.45905 15.6508 4.50745 16.5275 4.50745 16.5537C4.50745 17.1102 4.16001 17.5629 3.73293 17.5629ZM7.95633 11.1519V10.1985C7.95633 10.0865 7.91882 9.98015 7.85364 9.90727L7.23368 9.21419C7.11046 9.07642 6.925 9.09517 6.81953 9.25602C6.71399 9.41687 6.72836 9.65892 6.85157 9.79669L7.36888 10.375V11.3429C7.36888 11.3449 7.36909 11.3468 7.36911 11.3488C7.36923 11.3576 7.36956 11.3663 7.37014 11.3751C7.37038 11.3787 7.37055 11.3823 7.37085 11.3859C7.37164 11.3952 7.37276 11.4044 7.37411 11.4137C7.37461 11.4172 7.37508 11.4207 7.37566 11.4242C7.37713 11.4331 7.37878 11.442 7.38078 11.4508L7.38186 11.4557C7.38201 11.4563 7.38213 11.4569 7.38224 11.4574L7.93218 13.904C7.94605 13.9656 7.97154 14.0218 8.00635 14.0672L8.59097 14.8304V15.2386L5.02514 15.2389L4.77982 10.845C5.37958 10.3777 5.7823 9.52246 5.7823 8.54646C5.7823 7.4749 5.29487 6.50952 4.54053 6.08702C4.4498 6.03618 4.34552 6.04826 4.26308 6.11923C4.18063 6.1902 4.13099 6.31044 4.13099 6.43939V7.83716H3.33432V6.43943C3.33432 6.31052 3.28468 6.1902 3.2022 6.11927C3.11973 6.04833 3.01548 6.03622 2.92472 6.08706C2.17059 6.50963 1.68327 7.47502 1.68327 8.54649C1.68327 9.52258 2.086 10.3778 2.68572 10.8451L2.4404 15.2389H1.03012C1.02592 15.2387 1.02178 15.2381 1.01893 15.2385C0.780982 15.2361 0.587447 14.9812 0.587447 14.6704V4.60294H11.7161V12.8418C11.5314 12.7014 11.3209 12.6262 11.1015 12.6262C11.1015 12.6262 11.1015 12.6262 11.1014 12.6262C10.9188 12.6262 10.7422 12.6782 10.5816 12.7766H9.60541L7.95633 11.1519ZM10.7369 14.908C10.4167 14.6157 10.3743 13.9977 10.6507 13.6369C10.9262 13.2773 11.4011 13.332 11.624 13.7496C11.2329 13.9789 10.9123 14.3972 10.7369 14.908ZM11.8582 17.3836L11.5148 16.9355C11.1399 16.4461 11.0635 15.6671 11.3337 15.0705L13.2873 17.6207C13.1082 17.7592 12.9033 17.8333 12.6896 17.8333C12.3755 17.8333 12.0802 17.6736 11.8582 17.3836Z" fill="#CB1616"/>
<path d="M6.10767 1.83511C6.32996 2.02529 6.62533 1.74999 6.55372 1.41396C6.52014 1.25645 6.41058 1.14146 6.28525 1.13333C6.15989 1.1252 6.04211 1.22593 5.99699 1.37838C5.94767 1.54486 5.99564 1.73489 6.10767 1.83511Z" fill="#CB1616"/>
</g>
<defs>
<clipPath id="clip0_1363_507">
<rect width="15" height="15" fill="white" transform="translate(0 0.598541)"/>
</clipPath>
</defs>
</svg>
