<svg width="20" height="20" viewBox="0 0 20 20" fill="none" xmlns="http://www.w3.org/2000/svg">
<path fill-rule="evenodd" clip-rule="evenodd" d="M12.045 3.125C12.045 2.95924 11.9792 2.80027 11.8619 2.68306C11.7447 2.56585 11.5858 2.5 11.42 2.5H3.125C2.62772 2.5 2.15081 2.69754 1.79917 3.04917C1.44754 3.40081 1.25 3.87772 1.25 4.375V16.875C1.25 17.3723 1.44754 17.8492 1.79917 18.2008C2.15081 18.5525 2.62772 18.75 3.125 18.75H15.625C16.1223 18.75 16.5992 18.5525 16.9508 18.2008C17.3025 17.8492 17.5 17.3723 17.5 16.875V8.58C17.5 8.41424 17.4342 8.25527 17.3169 8.13806C17.1997 8.02085 17.0408 7.955 16.875 7.955C16.7092 7.955 16.5503 8.02085 16.4331 8.13806C16.3158 8.25527 16.25 8.41424 16.25 8.58V16.875C16.25 17.0408 16.1842 17.1997 16.0669 17.3169C15.9497 17.4342 15.7908 17.5 15.625 17.5H3.125C2.95924 17.5 2.80027 17.4342 2.68306 17.3169C2.56585 17.1997 2.5 17.0408 2.5 16.875V4.375C2.5 4.20924 2.56585 4.05027 2.68306 3.93306C2.80027 3.81585 2.95924 3.75 3.125 3.75H11.42C11.5858 3.75 11.7447 3.68415 11.8619 3.56694C11.9792 3.44973 12.045 3.29076 12.045 3.125Z" fill="black" fill-opacity="0.62"/>
<path fill-rule="evenodd" clip-rule="evenodd" d="M6.25 13.1251C6.25 13.2908 6.31585 13.4498 6.43306 13.567C6.55027 13.6842 6.70924 13.7501 6.875 13.7501H13.125C13.2908 13.7501 13.4497 13.6842 13.5669 13.567C13.6842 13.4498 13.75 13.2908 13.75 13.1251C13.75 12.9593 13.6842 12.8003 13.5669 12.6831C13.4497 12.5659 13.2908 12.5001 13.125 12.5001H8.38375L18.5675 2.31756C18.6256 2.25945 18.6717 2.19046 18.7032 2.11454C18.7346 2.03861 18.7508 1.95724 18.7508 1.87506C18.7508 1.79288 18.7346 1.7115 18.7032 1.63558C18.6717 1.55965 18.6256 1.49067 18.5675 1.43256C18.5094 1.37445 18.4404 1.32835 18.3645 1.2969C18.2886 1.26545 18.2072 1.24927 18.125 1.24927C18.0428 1.24927 17.9614 1.26545 17.8855 1.2969C17.8096 1.32835 17.7406 1.37445 17.6825 1.43256L7.5 11.6163V6.87506C7.5 6.7093 7.43415 6.55033 7.31694 6.43312C7.19973 6.31591 7.04076 6.25006 6.875 6.25006C6.70924 6.25006 6.55027 6.31591 6.43306 6.43312C6.31585 6.55033 6.25 6.7093 6.25 6.87506V13.1251Z" fill="black" fill-opacity="0.62"/>
</svg>
