<svg width="15" height="15" viewBox="0 0 15 15" fill="none" xmlns="http://www.w3.org/2000/svg">
<g filter="url(#filter0_i_1363_471)">
<path d="M0.156616 14.6867H6.03129V0H0.156616V14.6867ZM1.62528 1.46867H4.56262V5.87076H1.62528V1.46867ZM3.09395 10.2807C3.90466 10.2807 4.56262 10.9386 4.56262 11.7493C4.56262 12.5601 3.90466 13.218 3.09395 13.218C2.28325 13.218 1.62528 12.5601 1.62528 11.7493C1.62528 10.9386 2.28325 10.2807 3.09395 10.2807Z" fill="#7995F7"/>
<path d="M8.96863 0V14.6867H14.8433V0H8.96863ZM11.906 13.218C11.0953 13.218 10.4373 12.5601 10.4373 11.7493C10.4373 10.9386 11.0953 10.2807 11.906 10.2807C12.7167 10.2807 13.3746 10.9386 13.3746 11.7493C13.3746 12.5601 12.7167 13.218 11.906 13.218ZM13.3746 5.87467H10.4373V4.40601H13.3746V5.87467ZM13.3746 2.93734H10.4373V1.46867H13.3746V2.93734Z" fill="#7995F7"/>
</g>
<defs>
<filter id="filter0_i_1363_471" x="0.156616" y="0" width="14.6866" height="18.6867" filterUnits="userSpaceOnUse" color-interpolation-filters="sRGB">
<feFlood flood-opacity="0" result="BackgroundImageFix"/>
<feBlend mode="normal" in="SourceGraphic" in2="BackgroundImageFix" result="shape"/>
<feColorMatrix in="SourceAlpha" type="matrix" values="0 0 0 0 0 0 0 0 0 0 0 0 0 0 0 0 0 0 127 0" result="hardAlpha"/>
<feOffset dy="4"/>
<feGaussianBlur stdDeviation="2"/>
<feComposite in2="hardAlpha" operator="arithmetic" k2="-1" k3="1"/>
<feColorMatrix type="matrix" values="0 0 0 0 0 0 0 0 0 0 0 0 0 0 0 0 0 0 0.25 0"/>
<feBlend mode="normal" in2="shape" result="effect1_innerShadow_1363_471"/>
</filter>
</defs>
</svg>
