<svg width="15" height="15" viewBox="0 0 15 15" fill="none" xmlns="http://www.w3.org/2000/svg">
<g clip-path="url(#clip0_1363_487)">
<path d="M5.79478 6.45942C6.15084 5.61035 6.77286 4.86421 7.63039 4.36881C8.29119 3.98669 9.04518 3.78439 9.80872 3.78439C10.4429 3.78439 11.0587 3.9297 11.6196 4.18531V2.15596C11.6197 0.965343 9.2062 0 6.23021 0C3.25333 0 0.840269 0.965343 0.840269 2.15596V4.31231C0.839075 5.44534 3.02079 6.3714 5.79478 6.45942ZM6.22902 0.538666C9.18989 0.538666 11.0794 1.49675 11.0794 2.15536C11.0794 2.81517 9.18989 3.77236 6.22902 3.77236C3.26755 3.77236 1.37804 2.81517 1.37804 2.15536C1.37804 1.49675 3.26755 0.538666 6.22902 0.538666ZM0.838379 7.5472V5.39084C0.838379 6.4822 2.86693 7.3815 5.4971 7.52412C5.39237 8.24122 5.46617 8.98606 5.73332 9.69221C2.98926 9.59226 0.839075 8.67118 0.838379 7.5472ZM9.49085 12.495C8.58489 12.7706 7.45623 12.9371 6.22902 12.9371C3.25213 12.9371 0.839075 11.9718 0.839075 10.7805V8.62393C0.839075 9.81574 3.25154 10.7806 6.22902 10.7806C6.26293 10.7806 6.29595 10.7788 6.32987 10.7788C7.08287 11.7732 8.23788 12.3981 9.49085 12.495ZM13.0585 6.27682C12.0253 4.48786 9.73005 3.87251 7.9404 4.90578C6.15144 5.93896 5.53619 8.23396 6.56867 10.0229C7.60184 11.8125 9.89833 12.4272 11.6873 11.3952C13.4776 10.3627 14.0917 8.06627 13.0585 6.27682ZM7.10624 9.7128C6.24384 8.22123 6.75774 6.30506 8.25061 5.44236C9.74348 4.58085 11.6595 5.09386 12.5219 6.58703C13.3844 8.08019 12.8702 9.99636 11.3774 10.8581C9.88391 11.7212 7.96834 11.2076 7.10624 9.7128ZM13.8701 13.3127L12.2586 14.2429L11.0176 12.0948L12.6298 11.164L13.8701 13.3127ZM13.6962 14.8752C13.2499 15.132 12.6819 14.9806 12.4238 14.5341L14.0366 13.6039C14.294 14.0503 14.1414 14.6183 13.6962 14.8752Z" fill="#DF924A"/>
</g>
<defs>
<clipPath id="clip0_1363_487">
<rect width="15" height="15" fill="white"/>
</clipPath>
</defs>
</svg>
