<svg width="15" height="15" viewBox="0 0 15 15" fill="none" xmlns="http://www.w3.org/2000/svg">
<path d="M11.5 8.5C11.362 8.5 11.25 8.612 11.25 8.75V12.25C11.25 12.388 11.362 12.5 11.5 12.5C11.638 12.5 11.75 12.388 11.75 12.25V8.75C11.75 8.612 11.638 8.5 11.5 8.5ZM3.5 10.5C3.362 10.5 3.25 10.612 3.25 10.75V12.25C3.25 12.388 3.362 12.5 3.5 12.5C3.638 12.5 3.75 12.388 3.75 12.25V10.75C3.75 10.612 3.638 10.5 3.5 10.5ZM7.5 5.5C7.362 5.5 7.25 5.612 7.25 5.75V12.25C7.25 12.388 7.362 12.5 7.5 12.5C7.638 12.5 7.75 12.388 7.75 12.25V5.75C7.75 5.612 7.638 5.5 7.5 5.5Z" fill="#3042E3"/>
<path d="M10.5 6.5C10.5 7.05225 10.9477 7.5 11.5 7.5C12.0523 7.5 12.5 7.05225 12.5 6.5C12.5 5.94775 12.0523 5.5 11.5 5.5C10.9477 5.5 10.5 5.94775 10.5 6.5ZM11.5 6C11.7763 6 12 6.22375 12 6.5C12 6.77625 11.7763 7 11.5 7C11.2237 7 11 6.77625 11 6.5C11 6.22375 11.2237 6 11.5 6ZM11.75 4.25V2.75C11.75 2.612 11.638 2.5 11.5 2.5C11.362 2.5 11.25 2.612 11.25 2.75V4.25C11.25 4.388 11.362 4.5 11.5 4.5C11.638 4.5 11.75 4.388 11.75 4.25ZM14 0H1C0.44775 0 0 0.44775 0 1V14C0 14.5523 0.44775 15 1 15H13.25C13.388 15 13.5 14.888 13.5 14.75C13.5 14.612 13.388 14.5 13.25 14.5H1C0.72375 14.5 0.5 14.2763 0.5 14V1C0.5 0.72375 0.72375 0.5 1 0.5H14C14.2763 0.5 14.5 0.72375 14.5 1V14.75C14.5 14.888 14.612 15 14.75 15C14.888 15 15 14.888 15 14.75V1C15 0.44775 14.5523 0 14 0ZM3.75 6.25V2.75C3.75 2.612 3.638 2.5 3.5 2.5C3.362 2.5 3.25 2.612 3.25 2.75V6.25C3.25 6.388 3.362 6.5 3.5 6.5C3.638 6.5 3.75 6.388 3.75 6.25ZM2.5 8.5C2.5 9.05225 2.94775 9.5 3.5 9.5C4.05225 9.5 4.5 9.05225 4.5 8.5C4.5 7.94775 4.05225 7.5 3.5 7.5C2.94775 7.5 2.5 7.94775 2.5 8.5ZM3.5 8C3.77625 8 4 8.22375 4 8.5C4 8.77625 3.77625 9 3.5 9C3.22375 9 3 8.77625 3 8.5C3 8.22375 3.22375 8 3.5 8ZM6.5 3.5C6.5 4.05225 6.94775 4.5 7.5 4.5C8.05225 4.5 8.5 4.05225 8.5 3.5C8.5 2.94775 8.05225 2.5 7.5 2.5C6.94775 2.5 6.5 2.94775 6.5 3.5ZM8 3.5C8 3.77625 7.77625 4 7.5 4C7.224 4 7 3.77625 7 3.5C7 3.22375 7.224 3 7.5 3C7.77625 3 8 3.224 8 3.5Z" fill="#3042E3"/>
</svg>
